<?xml version="1.0" encoding="utf-8"?>
<!-- Generator: Adobe Illustrator 30.2.1, SVG Export Plug-In . SVG Version: 9.03 Build 0)  -->
<svg version="1.0"
	 id="svg2" xmlns:inkscape="http://www.inkscape.org/namespaces/inkscape" xmlns:sodipodi="http://sodipodi.sourceforge.net/DTD/sodipodi-0.dtd" xmlns:svg="http://www.w3.org/2000/svg"
	 xmlns="http://www.w3.org/2000/svg" xmlns:xlink="http://www.w3.org/1999/xlink" x="0px" y="0px" viewBox="0 0 48 48"
	 enable-background="new 0 0 48 48" xml:space="preserve">
<sodipodi:namedview  bordercolor="#eeeeee" borderopacity="1" id="namedview2" inkscape:current-layer="svg2" inkscape:cx="852.20339" inkscape:cy="480" inkscape:deskcolor="#505050" inkscape:document-units="pt" inkscape:pagecheckerboard="0" inkscape:pageopacity="0" inkscape:showpageshadow="0" inkscape:window-height="449" inkscape:window-maximized="0" inkscape:window-width="1312" inkscape:window-x="0" inkscape:window-y="39" inkscape:zoom="0.24583333" pagecolor="#505050">
	</sodipodi:namedview>
<g id="g2" transform="translate(0.000000,720.000000) scale(0.100000,-0.100000)">
	<path id="path1" fill="#FFFFFF" d="M229.2,7191.8c-38.1-2.5-78.1-16.2-109.7-37.5c-33.4-22.6-59.8-53.1-77-88.6
		c-9.4-19.5-15.2-37.8-19.3-60.4c-3-16.9-3.7-42.5-1.6-62.1c2.8-26.4,12.5-58,25.5-83.8l3.7-7.3l-8.7-25.9
		c-4.8-14.3-13.5-40.2-19.3-57.7c-5.9-17.6-10.5-32.4-10.7-33.1c-0.5-1.9-1.4-3.9-1.3-5.9c0-0.4,0.1-0.8,0.3-1.1
		c1.2-1.7,4.5-0.6,6-0.1c2.9,0.9,66,21,92.7,29.6c14,4.4,26,8.1,26.7,8.1c0.6,0,3.7-1.2,6.7-2.8c25.8-13,53.3-20.7,82.6-23.4
		c11.6-1,35.1-0.5,46.5,1.1c67.3,9.3,124.6,46.5,159.9,103.6c11.5,18.6,22.4,44.6,28.3,67.2c5.6,21.7,8.3,48.5,6.8,69.3
		c-3.8,55.1-25.1,103.9-62.2,142.3c-35.9,37.2-81.6,60.2-133.7,67.2C263.9,7191.5,237.5,7192.3,229.2,7191.8z M256.8,7143.5
		c25.2-2,45.9-7.6,67.7-18.3c29.6-14.5,54.3-36.3,72.7-63.9c14.1-21.2,22.8-44.1,26.2-69.1c1.6-11.9,1.6-35.8,0-48
		c-11.5-85.3-81.9-151-167.3-156.4c-30.1-1.8-58.1,3.1-85.5,15.1c-7.5,3.3-20,10.1-23.9,12.9c-1.2,0.9-2.8,1.7-3.5,1.7
		c-0.6,0-15.7-4.6-33.3-10.2c-17.6-5.6-32.2-10.2-32.2-10.1c-0.1,0.1,4.4,13.9,9.9,30.5c5.6,16.7,10.2,31.2,10.2,32.3
		s-1.3,3.7-3.1,6.3C65,6908.7,55.4,6967,69.7,7016.5c3.2,10.7,5.8,17.3,10.9,27.5c14.1,27.6,35.6,51.6,62.1,69.3
		C176.1,7135.6,217.8,7146.6,256.8,7143.5z"/>
	<path id="path2" fill="#FFFFFF" d="M163.4,7078.3c-1.6-0.5-4-1.6-5.3-2.4c-3.6-2.3-14-13.4-17.3-18.5
		c-10.4-16.2-12.7-37.7-6.5-58.7c4.7-15.9,10.5-28,21.1-44.4c13.4-20.6,22.1-31.7,36-46.1c20.9-21.5,38.5-33.6,65.4-44.8
		c19.9-8.3,34.6-13.1,42.8-13.9c5.7-0.6,18.2,1.4,25.5,4.1c10.2,3.7,21.8,11.9,26.3,18.5c4.5,6.8,9.2,22.1,9.7,32.2l0.4,6.7
		l-2.2,2.5c-1.6,1.7-7.9,5.5-20.7,12.4c-30.5,16.4-34.4,17.9-39.2,15.4c-1.2-0.6-5.7-5.2-9.9-10.1c-12.6-14.6-15.2-17.1-17.3-17.1
		c-2.7,0-20.2,9-28.4,14.5c-9.5,6.5-15.7,11.7-23.6,19.8c-9.3,9.7-19.4,23.5-25,34.3l-1.3,2.5l5.1,5.6c6.7,7.1,9.5,11.4,12.1,18.9
		c2.8,7.6,2.6,9.9-1.4,20.5c-3.6,9.4-6.5,17.1-11.5,30.6c-4.1,11.1-7.1,15.6-11.4,16.9C183,7079,166.7,7079.4,163.4,7078.3z"/>
</g>
</svg>
